<svg width="1000" height="1000" viewBox="0 0 1000 1000" fill="none" xmlns="http://www.w3.org/2000/svg">
<rect width="1000" height="1000" rx="220" fill="url(#paint0_linear_142_8)"/>
<path transform="translate(500 500) scale(1.16) translate(-500 -500)" d="M500.442 216.5C504.658 216.504 508.797 216.741 511.394 217.203C518.934 218.544 526.877 221.459 533.57 225.341C537.241 227.469 542.915 231.544 554.571 240.434C559.295 244.036 563.937 247.556 564.885 248.254C565.824 248.945 568.462 250.94 570.748 252.688C573.035 254.438 577.31 257.672 580.248 259.876C586.923 264.883 587.877 265.603 617.406 287.922C649.221 311.969 653.09 315.039 656.555 318.923C663.94 327.202 668.518 336.492 670.595 347.415C671.033 349.723 671.261 351.218 671.378 359.578C671.495 367.942 671.5 383.144 671.5 412.852C671.5 446.129 671.514 462.339 671.191 471.289C671.03 475.762 670.786 478.4 670.417 480.438C670.049 482.472 669.556 483.919 668.877 486.039C665.309 497.177 659.766 505.93 650.986 514.279C643.121 521.759 635.163 526.75 624.764 530.724C614.35 534.703 605.715 536.179 590.996 536.474C581.281 536.668 580.323 536.613 576.883 535.779C567.738 533.562 561.225 528.167 558.472 520.632C557.764 518.696 557.404 515.955 557.41 513.163C557.416 510.373 557.788 507.591 558.507 505.576C559.981 501.44 563.341 496.946 566.667 494.637C572.113 490.856 577.97 489.422 590.133 489.013C603.988 488.547 608.448 487.749 613.312 484.696C617.985 481.764 620.779 477.474 621.966 471.489C622.291 469.849 622.463 467.373 622.542 459.266C622.621 451.141 622.606 437.32 622.544 412.951C622.468 383.038 622.47 368.966 622.156 361.758C621.999 358.158 621.763 356.225 621.383 354.872C621 353.51 620.465 352.733 619.818 351.533C618.189 348.509 615.575 345.855 610.765 342.257C599.619 333.92 586.125 323.788 581.74 320.463C579.047 318.42 574.34 314.877 571.279 312.589C568.22 310.301 562.213 305.801 557.93 302.588C553.646 299.375 548.468 295.499 546.423 293.976C544.381 292.454 540.979 289.876 538.864 288.248C536.747 286.618 533.986 284.532 532.728 283.612C531.478 282.699 527.976 280.071 524.946 277.772C512.087 268.016 510.397 266.803 508.208 265.86C505.832 264.837 502.891 264.333 499.981 264.33C497.072 264.328 494.152 264.828 491.817 265.849C491.458 266.006 490.734 266.456 489.776 267.095C488.801 267.745 487.54 268.62 486.084 269.654C483.17 271.724 479.464 274.443 475.667 277.31C468.08 283.038 458.567 290.204 454.529 293.233C437.874 305.728 431.911 310.205 424.824 315.534C406.686 329.172 393.106 339.345 390.229 341.449C383.461 346.401 380.348 350.039 378.694 355.1C378.236 356.504 378.017 357.589 377.904 365.108C377.791 372.646 377.786 386.71 377.786 414.127C377.786 445.088 377.749 459.747 378.079 467.312C378.244 471.09 378.501 473.144 378.917 474.59C379.336 476.046 379.92 476.882 380.632 478.149C383.18 482.683 388.789 486.52 394.859 487.961C395.302 488.066 396.143 488.152 397.392 488.229C398.656 488.308 400.377 488.379 402.606 488.444C407.065 488.575 413.573 488.684 422.561 488.783C434.664 488.917 441.028 488.998 444.703 489.15C448.365 489.302 449.312 489.524 450.597 489.93C458.137 492.31 464.575 498.018 467.079 504.478C467.478 505.506 468.025 507.007 468.294 507.808C468.286 507.785 468.293 507.799 468.304 507.896C468.313 507.977 468.324 508.091 468.334 508.24C468.354 508.539 468.375 508.963 468.395 509.517C468.434 510.624 468.472 512.238 468.508 514.395C468.58 518.707 468.644 525.176 468.703 534.065C468.821 551.843 468.915 579.293 469 618.511L469.238 727.899V728.031L469.303 728.146L470.267 729.847C473.413 735.403 480.749 738.216 487.16 736.377C490.097 735.535 491.642 734.394 499.021 727.853C502.415 724.844 507.008 720.774 509.228 718.807C511.446 716.841 514.806 713.909 516.692 712.291C517.646 711.473 518.517 710.653 519.153 709.99C519.47 709.66 519.736 709.361 519.926 709.115C520.02 708.993 520.104 708.875 520.166 708.766C520.214 708.681 520.302 708.517 520.302 708.331C520.302 708.182 520.241 708.059 520.217 708.011C520.182 707.942 520.137 707.871 520.091 707.804C519.997 707.667 519.866 707.501 519.709 707.314C519.393 706.939 518.943 706.444 518.394 705.869C517.293 704.717 515.779 703.22 514.116 701.655C510.802 698.535 507.162 694.684 506.022 693.106C499.69 684.34 498.592 673.765 503.029 664.685C505.951 658.707 508.525 655.72 520.302 644.788C531.128 634.738 536.876 629.427 540.374 626.419C543.858 623.423 545.074 622.742 546.841 621.938C559.473 616.194 573.788 621.535 578.423 633.607C580.528 639.09 580.108 645.203 577.167 651.222C576.456 652.678 575.735 653.782 573.25 656.27C570.751 658.771 566.499 662.64 558.743 669.627C556.765 671.409 554.937 673.101 553.584 674.394C552.908 675.039 552.348 675.588 551.946 675.998C551.746 676.203 551.582 676.378 551.461 676.515C551.401 676.583 551.347 676.647 551.304 676.703C551.287 676.725 551.264 676.756 551.24 676.793L551.174 676.917C551.093 677.115 551.145 677.3 551.172 677.381C551.205 677.481 551.257 677.58 551.312 677.67C551.421 677.853 551.588 678.076 551.799 678.332C552.224 678.849 552.88 679.561 553.768 680.473C555.546 682.299 558.288 684.962 562.06 688.527C565.431 691.715 568.327 694.54 570.489 696.743C571.571 697.845 572.467 698.789 573.147 699.543C573.835 700.306 574.282 700.851 574.482 701.166C578.347 707.219 578.046 715.662 573.719 721.783C573.404 722.228 572.591 723.11 571.354 724.347C570.13 725.571 568.519 727.115 566.641 728.867C562.884 732.372 558.061 736.705 553.118 740.985C552.847 741.22 550.916 742.928 548.831 744.776C546.746 746.625 542.544 750.315 539.495 752.976C532.616 758.979 527.992 763.031 524.812 765.847C517.626 772.207 512.447 775.742 506.502 778.368C501.819 780.437 494.491 782.467 489.335 783.125C485.339 783.635 478.054 783.623 474.266 783.102C465.609 781.91 456.994 778.806 449.422 774.148C435.33 765.481 426.386 753.26 422.263 737.031L421.315 733.306L421.078 634.496L420.841 535.626L420.839 535.136L420.349 535.127L405.663 534.881C392.939 534.667 390.372 534.51 386.273 533.717C375.883 531.706 365.489 527.291 357.257 521.395C342.508 510.831 332.381 495.334 329.39 478.793C328.96 476.417 328.735 474.78 328.62 466.329C328.505 457.874 328.499 442.629 328.5 413.049C328.5 379.669 328.48 363.571 328.804 354.757C328.966 350.352 329.213 347.79 329.586 345.81C329.959 343.832 330.458 342.424 331.151 340.297C333.529 333.007 337.313 326.189 342.113 320.54C345.942 316.035 349.054 313.277 357.447 306.984C359.651 305.332 363.556 302.389 366.127 300.444C391.727 281.074 431.548 251.025 432.49 250.364C433.161 249.894 439.185 245.356 445.865 240.287C452.554 235.213 458.823 230.468 459.801 229.74C468.125 223.546 479.196 218.814 489.177 217.185C491.984 216.726 496.229 216.496 500.442 216.5Z" fill="white" stroke="white"/>
<defs>
<linearGradient id="paint0_linear_142_8" x1="-66.4537" y1="438.341" x2="561.083" y2="1048.59" gradientUnits="userSpaceOnUse">
<stop stop-color="#2F7A52"/>
<stop offset="0.500385" stop-color="#10513F"/>
<stop offset="1" stop-color="#2F7A52"/>
</linearGradient>
</defs>
</svg>
