<svg width="61" height="100" viewBox="0 0 61 100" fill="none" xmlns="http://www.w3.org/2000/svg">
<path d="M25.9245 99.9289C24.377 99.7174 22.8379 99.1667 21.4848 98.3404C18.966 96.8023 17.366 94.6316 16.6293 91.7525L16.4587 91.0859L16.4165 73.6791L16.3743 56.2724L13.7702 56.229C11.5152 56.1914 11.0521 56.1637 10.3165 56.0224C8.46207 55.6662 6.60699 54.884 5.13637 53.8382C2.50387 51.9662 0.694111 49.2187 0.159254 46.2821C0.00418906 45.4307 -0.000261368 45.1067 4.6395e-05 34.6918C4.6395e-05 22.9408 -0.0145607 23.3454 0.474593 21.856C0.899579 20.5621 1.57614 19.3514 2.43501 18.3479C3.12024 17.5473 3.67833 17.0573 5.16857 15.948C5.5592 15.6572 6.25166 15.1392 6.70739 14.7968C11.2455 11.3878 18.309 6.09548 18.4779 5.97797C18.595 5.8965 19.661 5.09898 20.8469 4.20571C22.0328 3.31244 23.1451 2.47663 23.3187 2.34835C24.8058 1.24957 26.7823 0.410917 28.5665 0.121646C29.5759 -0.0420215 31.5995 -0.0402282 32.5359 0.125168C33.8833 0.363139 35.3015 0.879795 36.4973 1.5683C37.1539 1.94636 38.1648 2.66754 40.2306 4.2317C41.0686 4.86624 41.8911 5.4854 42.0584 5.60762C42.2256 5.72984 42.694 6.08163 43.0993 6.38938C43.5046 6.69713 44.2624 7.26628 44.7832 7.65417C45.967 8.53577 46.1363 8.66265 51.3725 12.592C57.0092 16.8219 57.7054 17.3695 58.3273 18.0617C59.6477 19.5312 60.4667 21.1812 60.8379 23.1199C60.9965 23.9479 61 24.1975 61 34.657C61 46.3721 61.0105 46.0819 60.5307 47.569C59.8933 49.5445 58.9021 51.0979 57.3348 52.5777C55.9314 53.9027 54.5102 54.7876 52.6555 55.4913C50.7969 56.1965 49.255 56.4573 46.6377 56.5093C44.916 56.5436 44.7352 56.5346 44.1125 56.3848C42.4674 55.9888 41.2853 55.0217 40.7852 53.6626C40.5246 52.9542 40.5274 51.6869 40.7913 50.9522C41.0584 50.2081 41.665 49.4012 42.2712 48.9834C43.2582 48.3031 44.3179 48.0498 46.4799 47.9776C48.9381 47.8955 49.706 47.7545 50.5461 47.2311C51.3515 46.7293 51.8345 45.9964 52.0408 44.9634C52.1522 44.4052 52.1635 43.2558 52.1416 34.6747C52.1147 24.1387 52.1428 24.7765 51.6688 23.9032C51.3892 23.3878 50.9381 22.9299 50.0884 22.2989C48.1119 20.8311 45.7189 19.0471 44.9411 18.4614C44.4637 18.102 43.6292 17.4783 43.0866 17.0756C42.5441 16.6728 41.4788 15.8804 40.7192 15.3147C39.9597 14.749 39.0416 14.0668 38.679 13.7986C38.3165 13.5304 37.7128 13.0763 37.3375 12.7894C36.9622 12.5026 36.4733 12.1359 36.251 11.9747C36.0288 11.8134 35.4074 11.3503 34.8701 10.9456C32.5836 9.22318 32.2957 9.01958 31.9203 8.8591C31.1047 8.51039 29.8849 8.50938 29.0846 8.85675C28.8647 8.95216 27.584 9.85548 26.2386 10.8641C24.8931 11.8727 23.2063 13.1344 22.4902 13.6678C19.5368 15.8677 18.4794 16.6558 17.2227 17.594C14.0065 19.9949 11.5976 21.7865 11.0871 22.1572C9.89341 23.0243 9.35855 23.6511 9.07368 24.5168C8.92072 24.9816 8.91701 25.2266 8.91701 34.8814C8.91701 45.7869 8.89089 45.1924 9.41034 46.11C9.84746 46.8822 10.8182 47.5454 11.8763 47.7947C12.1559 47.8606 13.5814 47.9021 16.7689 47.9372C21.0601 47.9844 21.29 47.9938 21.7662 48.1431C23.1252 48.569 24.2898 49.5908 24.7449 50.7565C24.816 50.9385 24.9135 51.2041 24.9617 51.3466C25.0246 51.5325 25.0613 57.0554 25.0916 70.8644L25.1338 90.123L25.3047 90.4226C25.841 91.3629 27.0983 91.8445 28.1987 91.5311C28.6963 91.3894 28.9547 91.2042 30.2676 90.0489C30.8694 89.5193 31.6839 88.8027 32.0775 88.4564C32.4712 88.1101 33.0673 87.5934 33.4023 87.3083C33.7372 87.0231 34.0113 86.7394 34.0114 86.6779C34.0115 86.6163 33.5305 86.1163 32.9425 85.5668C32.3544 85.0173 31.7036 84.3343 31.4961 84.0491C30.3556 82.4815 30.1551 80.5853 30.9575 78.9551C31.4835 77.8866 31.9513 77.351 34.0397 75.4264C37.878 71.889 38.123 71.6798 38.7694 71.388C41.0505 70.3581 43.6469 71.3127 44.4892 73.4909C44.8725 74.4819 44.794 75.5837 44.2633 76.6621C43.9999 77.1974 43.7252 77.4704 40.9761 79.9293C40.2755 80.5558 39.6818 81.1189 39.6566 81.1805C39.6253 81.2571 40.2284 81.8722 41.5657 83.1274C42.7626 84.2507 43.6221 85.1201 43.7823 85.3692C44.4881 86.4666 44.4317 87.9918 43.6446 89.0971C43.4011 89.439 41.7317 90.9851 39.9772 92.4936C39.9296 92.5345 39.5878 92.8345 39.2178 93.1602C38.8477 93.486 38.1025 94.1358 37.5617 94.6043C36.3418 95.6611 35.5223 96.3744 34.9585 96.8698C33.6804 97.993 32.7544 98.6216 31.6889 99.0889C30.8505 99.4566 29.5427 99.8165 28.62 99.9333C27.904 100.024 26.6044 100.022 25.9245 99.9289Z" fill="#259A72"/>
</svg>
