<svg viewBox="117 29 277 454" fill="none" xmlns="http://www.w3.org/2000/svg">
  <path d="M255.856 29.5C259.249 29.503 262.575 29.6927 264.658 30.0605C270.719 31.1308 277.104 33.4566 282.484 36.5537C285.433 38.2513 289.998 41.5043 299.385 48.6104C303.189 51.4898 306.928 54.3043 307.691 54.8623C308.447 55.4142 310.571 57.0091 312.411 58.4062C314.253 59.8046 317.696 62.3897 320.062 64.1514C325.436 68.1529 326.204 68.7283 349.981 86.5674C375.606 105.792 378.709 108.239 381.491 111.334C387.426 117.938 391.105 125.346 392.773 134.059C393.125 135.894 393.308 137.082 393.402 143.763C393.496 150.447 393.5 162.597 393.5 186.343C393.5 212.943 393.512 225.897 393.252 233.048C393.122 236.622 392.924 238.724 392.629 240.346C392.334 241.963 391.941 243.114 391.394 244.81C388.526 253.695 384.072 260.676 377.014 267.339C370.69 273.308 364.293 277.291 355.931 280.463C347.558 283.639 340.616 284.817 328.771 285.053C320.947 285.208 320.187 285.164 317.431 284.501C310.091 282.735 304.877 278.44 302.674 272.455C302.11 270.923 301.82 268.746 301.825 266.521C301.83 264.298 302.13 262.088 302.703 260.492C303.884 257.205 306.576 253.629 309.236 251.796C313.599 248.79 318.293 247.645 328.081 247.318C339.236 246.946 342.851 246.309 346.793 243.854C350.581 241.494 352.846 238.041 353.807 233.232C354.071 231.91 354.209 229.92 354.272 223.442C354.336 216.947 354.324 205.9 354.274 186.422C354.213 162.515 354.215 151.263 353.962 145.499C353.836 142.621 353.645 141.066 353.335 139.972C353.023 138.868 352.582 138.233 352.066 137.282C350.744 134.846 348.625 132.714 344.748 129.835C335.773 123.172 324.908 115.073 321.378 112.415C319.209 110.782 315.419 107.951 312.954 106.122C310.491 104.294 305.653 100.696 302.204 98.1279C298.755 95.5598 294.586 92.4624 292.938 91.2441C291.294 90.0283 288.555 87.9679 286.853 86.667C285.147 85.3636 282.923 83.6956 281.909 82.96C280.904 82.2308 278.085 80.1314 275.646 78.2939C265.298 70.5006 263.923 69.5201 262.146 68.7607C260.219 67.9368 257.838 67.5322 255.485 67.5303C253.133 67.5283 250.769 67.9288 248.874 68.751C248.576 68.8805 247.985 69.2469 247.216 69.7559C246.429 70.2766 245.412 70.9754 244.239 71.8027C241.892 73.4578 238.907 75.6309 235.849 77.9229C229.739 82.5019 222.08 88.2301 218.829 90.6514C205.418 100.638 200.616 104.216 194.909 108.476C180.303 119.377 169.367 127.509 167.053 129.189C161.596 133.152 159.07 136.075 157.729 140.149C157.353 141.289 157.178 142.172 157.087 148.181C156.996 154.207 156.992 165.448 156.992 187.361C156.992 212.107 156.963 223.828 157.229 229.877C157.361 232.898 157.569 234.55 157.907 235.718C158.249 236.897 158.727 237.58 159.297 238.586C161.366 242.239 165.908 245.318 170.815 246.475C171.181 246.561 171.867 246.631 172.871 246.692C173.891 246.755 175.277 246.812 177.072 246.864C180.663 246.969 185.904 247.055 193.142 247.135C202.889 247.242 208.012 247.306 210.97 247.428C213.914 247.549 214.667 247.726 215.69 248.047C221.739 249.942 226.897 254.486 228.9 259.616C229.219 260.431 229.655 261.618 229.872 262.26C229.873 262.268 229.877 262.287 229.881 262.322C229.888 262.385 229.896 262.475 229.904 262.594C229.921 262.831 229.937 263.168 229.953 263.61C229.985 264.494 230.015 265.784 230.044 267.508C230.102 270.954 230.154 276.125 230.201 283.229C230.296 297.439 230.372 319.379 230.44 350.726L230.632 438.159V438.291L230.697 438.406L231.474 439.767C234.032 444.251 239.986 446.513 245.187 445.032C247.576 444.352 248.837 443.422 254.774 438.197C257.507 435.793 261.207 432.54 262.994 430.968C264.78 429.397 267.484 427.052 269.003 425.76C269.773 425.104 270.477 424.448 270.992 423.915C271.248 423.65 271.465 423.408 271.621 423.208C271.698 423.109 271.769 423.01 271.822 422.917C271.862 422.849 271.945 422.697 271.945 422.519C271.946 422.373 271.886 422.255 271.865 422.215C271.834 422.154 271.795 422.094 271.757 422.038C271.679 421.925 271.571 421.79 271.444 421.64C271.188 421.337 270.823 420.94 270.38 420.479C269.493 419.557 268.272 418.36 266.933 417.108C264.264 414.615 261.34 411.542 260.428 410.289C255.349 403.31 254.471 394.898 258.026 387.677C260.369 382.918 262.429 380.541 271.912 371.804C280.631 363.77 285.258 359.526 288.072 357.123C290.873 354.732 291.845 354.194 293.257 353.557C303.387 348.984 314.85 353.24 318.559 362.829C320.241 367.18 319.908 372.036 317.551 376.825C316.984 377.976 316.412 378.849 314.416 380.833C312.406 382.83 308.985 385.92 302.738 391.506C301.145 392.931 299.672 394.285 298.582 395.318C298.037 395.835 297.585 396.273 297.261 396.603C297.099 396.767 296.965 396.908 296.866 397.02C296.817 397.075 296.772 397.128 296.735 397.176C296.722 397.193 296.701 397.22 296.679 397.254L296.617 397.37C296.538 397.564 296.59 397.742 296.613 397.812C296.644 397.903 296.689 397.99 296.734 398.064C296.827 398.217 296.965 398.399 297.136 398.604C297.481 399.021 298.011 399.593 298.727 400.322C300.16 401.784 302.37 403.913 305.407 406.763C308.122 409.31 310.451 411.567 312.191 413.327C313.062 414.207 313.782 414.961 314.329 415.562C314.884 416.173 315.238 416.603 315.395 416.847C318.483 421.648 318.244 428.351 314.782 433.211C314.535 433.558 313.886 434.257 312.889 435.247C311.904 436.225 310.608 437.458 309.096 438.858C306.071 441.659 302.189 445.121 298.21 448.542C297.991 448.73 296.436 450.095 294.757 451.572C293.078 453.05 289.695 456 287.24 458.126C281.701 462.924 277.977 466.163 275.416 468.413C269.635 473.493 265.473 476.311 260.698 478.405C256.936 480.055 251.044 481.677 246.9 482.201C243.69 482.608 237.832 482.597 234.79 482.182C227.832 481.231 220.909 478.755 214.822 475.039C203.497 468.124 196.312 458.378 192.998 445.433L192.237 442.466L192.047 363.502L191.855 284.476L191.854 283.985L191.364 283.977L179.538 283.779C169.291 283.609 167.232 283.483 163.941 282.851C155.588 281.246 147.231 277.722 140.614 273.018C128.757 264.587 120.618 252.224 118.215 239.031C117.87 237.14 117.689 235.84 117.597 229.086C117.504 222.329 117.499 210.145 117.5 186.501C117.5 159.819 117.484 146.954 117.744 139.911C117.874 136.392 118.073 134.35 118.372 132.775C118.671 131.203 119.071 130.085 119.63 128.383C121.54 122.568 124.581 117.13 128.438 112.625C131.513 109.032 134.012 106.833 140.769 101.805C142.543 100.484 145.689 98.1318 147.759 96.5771C168.373 81.0948 200.432 57.0808 201.193 56.5508C201.735 56.1738 206.587 52.5435 211.966 48.4932C217.352 44.4368 222.402 40.6441 223.188 40.0635C229.878 35.1214 238.779 31.3461 246.8 30.0459C249.053 29.6807 252.465 29.497 255.856 29.5Z" fill="#FFFFFF"/>
</svg>
