<svg width="299" height="90" viewBox="0 0 299 90" fill="none" xmlns="http://www.w3.org/2000/svg">
<path d="M147.22 49.44C147.22 46.04 147.9 43.06 149.26 40.5C150.66 37.9 152.58 35.9 155.02 34.5C157.46 33.1 160.26 32.4 163.42 32.4C167.42 32.4 170.72 33.36 173.32 35.28C175.96 37.16 177.74 39.86 178.66 43.38H171.28C170.68 41.74 169.72 40.46 168.4 39.54C167.08 38.62 165.42 38.16 163.42 38.16C160.62 38.16 158.38 39.16 156.7 41.16C155.06 43.12 154.24 45.88 154.24 49.44C154.24 53 155.06 55.78 156.7 57.78C158.38 59.78 160.62 60.78 163.42 60.78C167.38 60.78 170 59.04 171.28 55.56H178.66C177.7 58.92 175.9 61.6 173.26 63.6C170.62 65.56 167.34 66.54 163.42 66.54C160.26 66.54 157.46 65.84 155.02 64.44C152.58 63 150.66 61 149.26 58.44C147.9 55.84 147.22 52.84 147.22 49.44ZM200.777 32.4C203.297 32.4 205.537 32.94 207.497 34.02C209.497 35.1 211.057 36.7 212.177 38.82C213.337 40.94 213.917 43.5 213.917 46.5V66H207.137V47.52C207.137 44.56 206.397 42.3 204.917 40.74C203.437 39.14 201.417 38.34 198.857 38.34C196.297 38.34 194.257 39.14 192.737 40.74C191.257 42.3 190.517 44.56 190.517 47.52V66H183.677V21.6H190.517V36.78C191.677 35.38 193.137 34.3 194.897 33.54C196.697 32.78 198.657 32.4 200.777 32.4ZM218.561 49.32C218.561 46 219.241 43.06 220.601 40.5C222.001 37.94 223.881 35.96 226.241 34.56C228.641 33.12 231.281 32.4 234.161 32.4C236.761 32.4 239.021 32.92 240.941 33.96C242.901 34.96 244.461 36.22 245.621 37.74V32.94H252.521V66H245.621V61.08C244.461 62.64 242.881 63.94 240.881 64.98C238.881 66.02 236.601 66.54 234.041 66.54C231.201 66.54 228.601 65.82 226.241 64.38C223.881 62.9 222.001 60.86 220.601 58.26C219.241 55.62 218.561 52.64 218.561 49.32ZM245.621 49.44C245.621 47.16 245.141 45.18 244.181 43.5C243.261 41.82 242.041 40.54 240.521 39.66C239.001 38.78 237.361 38.34 235.601 38.34C233.841 38.34 232.201 38.78 230.681 39.66C229.161 40.5 227.921 41.76 226.961 43.44C226.041 45.08 225.581 47.04 225.581 49.32C225.581 51.6 226.041 53.6 226.961 55.32C227.921 57.04 229.161 58.36 230.681 59.28C232.241 60.16 233.881 60.6 235.601 60.6C237.361 60.6 239.001 60.16 240.521 59.28C242.041 58.4 243.261 57.12 244.181 55.44C245.141 53.72 245.621 51.72 245.621 49.44ZM267.685 38.52V56.82C267.685 58.06 267.965 58.96 268.525 59.52C269.125 60.04 270.125 60.3 271.525 60.3H275.725V66H270.325C267.245 66 264.885 65.28 263.245 63.84C261.605 62.4 260.785 60.06 260.785 56.82V38.52H256.885V32.94H260.785V24.72H267.685V32.94H275.725V38.52H267.685ZM288.21 38.52V56.82C288.21 58.06 288.49 58.96 289.05 59.52C289.65 60.04 290.65 60.3 292.05 60.3H296.25V66H290.85C287.77 66 285.41 65.28 283.77 63.84C282.13 62.4 281.31 60.06 281.31 56.82V38.52H277.41V32.94H281.31V24.72H288.21V32.94H296.25V38.52H288.21Z" fill="#259A72"/>
<path d="M58.8 24.3L46.44 66H38.7L29.94 34.44L20.64 66L12.96 66.06L1.14 24.3H8.4L17.04 58.26L26.4 24.3H34.08L42.78 58.08L51.48 24.3H58.8ZM60.3614 49.32C60.3614 46 61.0414 43.06 62.4014 40.5C63.8014 37.94 65.6814 35.96 68.0414 34.56C70.4414 33.12 73.0814 32.4 75.9614 32.4C78.5614 32.4 80.8214 32.92 82.7414 33.96C84.7014 34.96 86.2614 36.22 87.4214 37.74V32.94H94.3214V66H87.4214V61.08C86.2614 62.64 84.6814 63.94 82.6814 64.98C80.6814 66.02 78.4014 66.54 75.8414 66.54C73.0014 66.54 70.4014 65.82 68.0414 64.38C65.6814 62.9 63.8014 60.86 62.4014 58.26C61.0414 55.62 60.3614 52.64 60.3614 49.32ZM87.4214 49.44C87.4214 47.16 86.9414 45.18 85.9814 43.5C85.0614 41.82 83.8414 40.54 82.3214 39.66C80.8014 38.78 79.1614 38.34 77.4014 38.34C75.6414 38.34 74.0014 38.78 72.4814 39.66C70.9614 40.5 69.7214 41.76 68.7614 43.44C67.8414 45.08 67.3814 47.04 67.3814 49.32C67.3814 51.6 67.8414 53.6 68.7614 55.32C69.7214 57.04 70.9614 58.36 72.4814 59.28C74.0414 60.16 75.6814 60.6 77.4014 60.6C79.1614 60.6 80.8014 60.16 82.3214 59.28C83.8414 58.4 85.0614 57.12 85.9814 55.44C86.9414 53.72 87.4214 51.72 87.4214 49.44Z" fill="#259A72"/>
<path d="M117.975 82.946C116.782 82.7852 115.596 82.3667 114.554 81.7387C112.613 80.5698 111.38 78.92 110.813 76.7319L110.681 76.2253L110.649 62.9961L110.616 49.767L108.61 49.734C106.872 49.7055 106.516 49.6844 105.949 49.577C104.52 49.3063 103.091 48.7118 101.958 47.917C99.9292 46.4943 98.5348 44.4062 98.1227 42.1744C98.0032 41.5273 97.9998 41.2811 98 33.3657C98 24.435 97.9888 24.7425 98.3657 23.6106C98.6931 22.6272 99.2144 21.707 99.8762 20.9444C100.404 20.3359 100.834 19.9635 101.982 19.1205C102.283 18.8995 102.817 18.5058 103.168 18.2456C106.665 15.6547 112.107 11.6326 112.237 11.5433C112.327 11.4813 113.149 10.8752 114.062 10.1963C114.976 9.51745 115.833 8.88224 115.967 8.78475C117.113 7.94967 118.636 7.3123 120.01 7.09245C120.788 6.96806 122.347 6.96943 123.069 7.09513C124.107 7.27599 125.199 7.66864 126.121 8.19191C126.627 8.47923 127.406 9.02733 128.997 10.2161C129.643 10.6983 130.277 11.1689 130.406 11.2618C130.534 11.3547 130.895 11.622 131.208 11.8559C131.52 12.0898 132.104 12.5224 132.505 12.8172C133.417 13.4872 133.548 13.5836 137.582 16.57C141.925 19.7847 142.462 20.2008 142.941 20.7269C143.958 21.8437 144.589 23.0977 144.875 24.5711C144.997 25.2004 145 25.3901 145 33.3393C145 42.2428 145.008 42.0222 144.638 43.1524C144.147 44.6538 143.384 45.8344 142.176 46.959C141.095 47.966 140 48.6386 138.571 49.1734C137.139 49.7093 135.951 49.9076 133.934 49.9471C132.607 49.9731 132.468 49.9663 131.988 49.8524C130.721 49.5515 129.81 48.8165 129.425 47.7836C129.224 47.2452 129.226 46.2821 129.429 45.7236C129.635 45.1582 130.103 44.5449 130.57 44.2274C131.33 43.7103 132.147 43.5179 133.812 43.463C135.706 43.4006 136.298 43.2934 136.945 42.8957C137.566 42.5143 137.938 41.9573 138.097 41.1722C138.183 40.748 138.192 39.8744 138.175 33.3527C138.154 25.3454 138.176 25.8302 137.81 25.1665C137.595 24.7747 137.247 24.4267 136.593 23.9471C135.07 22.8317 133.226 21.4758 132.627 21.0307C132.259 20.7575 131.616 20.2835 131.198 19.9774C130.78 19.6713 129.959 19.0691 129.374 18.6392C128.789 18.2093 128.081 17.6908 127.802 17.4869C127.523 17.2831 127.057 16.938 126.768 16.72C126.479 16.502 126.102 16.2233 125.931 16.1007C125.76 15.9782 125.281 15.6262 124.867 15.3186C123.105 14.0096 122.884 13.8549 122.594 13.7329C121.966 13.4679 121.026 13.4671 120.409 13.7311C120.24 13.8036 119.253 14.4902 118.217 15.2567C117.18 16.0233 115.88 16.9822 115.328 17.3876C113.053 19.0594 112.238 19.6584 111.27 20.3714C108.792 22.1961 106.936 23.5577 106.543 23.8395C105.623 24.4984 105.211 24.9748 104.991 25.6327C104.873 25.986 104.87 26.1722 104.87 33.5099C104.87 41.798 104.85 41.3462 105.251 42.0436C105.587 42.6305 106.335 43.1345 107.151 43.324C107.366 43.3741 108.464 43.4056 110.92 43.4323C114.227 43.4681 114.404 43.4753 114.771 43.5888C115.818 43.9124 116.715 44.689 117.066 45.5749C117.121 45.7133 117.196 45.9151 117.233 46.0234C117.281 46.1647 117.31 50.3621 117.333 60.857L117.365 75.4935L117.497 75.7212C117.91 76.4358 118.879 76.8018 119.727 76.5636C120.11 76.4559 120.309 76.3152 121.321 75.4372C121.785 75.0347 122.412 74.49 122.715 74.2268C123.019 73.9637 123.478 73.571 123.736 73.3543C123.994 73.1375 124.205 72.9219 124.206 72.8752C124.206 72.8284 123.835 72.4484 123.382 72.0308C122.929 71.6131 122.427 71.0941 122.267 70.8773C121.389 69.6859 121.234 68.2449 121.853 67.0059C122.258 66.1938 122.618 65.7867 124.227 64.324C127.185 61.6356 127.373 61.4766 127.871 61.2549C129.629 60.4722 131.63 61.1976 132.279 62.853C132.574 63.6062 132.513 64.4436 132.105 65.2632C131.902 65.67 131.69 65.8775 129.572 67.7462C129.032 68.2224 128.574 68.6503 128.555 68.6971C128.531 68.7554 128.996 69.2228 130.026 70.1768C130.948 71.0306 131.61 71.6913 131.734 71.8806C132.278 72.7146 132.234 73.8738 131.628 74.7138C131.44 74.9737 130.154 76.1487 128.802 77.2951C128.765 77.3262 128.502 77.5542 128.217 77.8018C127.932 78.0493 127.358 78.5432 126.941 78.8993C126.001 79.7025 125.37 80.2445 124.935 80.6211C123.95 81.4747 123.237 81.9524 122.416 82.3076C121.77 82.587 120.762 82.8605 120.051 82.9493C119.5 83.0182 118.498 83.0166 117.975 82.946Z" fill="#259A72"/>
</svg>
